<svg id="visual" viewBox="0 0 900 450" width="900" height="450" xmlns="http://www.w3.org/2000/svg" xmlns:xlink="http://www.w3.org/1999/xlink" version="1.1"><rect x="0" y="0" width="900" height="450" fill="#F7F7FA"></rect><path d="M0 258L25 258.8C50 259.7 100 261.3 150 261.5C200 261.7 250 260.3 300 259C350 257.7 400 256.3 450 246.7C500 237 550 219 600 221.7C650 224.3 700 247.7 750 257C800 266.3 850 261.7 875 259.3L900 257L900 451L875 451C850 451 800 451 750 451C700 451 650 451 600 451C550 451 500 451 450 451C400 451 350 451 300 451C250 451 200 451 150 451C100 451 50 451 25 451L0 451Z" fill="#2D2949" stroke-linecap="round" stroke-linejoin="miter"></path></svg>